<svg xmlns="http://www.w3.org/2000/svg" xmlns:svg="http://www.w3.org/2000/svg" id="svg2" width="400" height="400" version="1.1" viewBox="0 0 400 400"><metadata id="metadata7"/><g id="layer1" transform="translate(0,-652.36216)"><path style="opacity:1;fill:#20d760;fill-opacity:1;stroke:none;stroke-width:1;stroke-miterlimit:4;stroke-dasharray:none;stroke-dashoffset:0;stroke-opacity:1" id="briefcase" d="m 124.49999,684.28992 0,50.1445 -124.499985,0 0,285.99998 399.999995,0 0,-285.99998 -124.5,0 0,-50.1445 -150,0 z m 25,25 101,0 0,25.1445 -101,0 z m -124.499985,50.1445 31.5,0 0,100 286.999995,0 0,-100 31.5,0 0,235.99997 -349.999995,0 z m 56.5,0 236.999995,0 0,75 -236.999995,0 z M 187.5,784.94032 l 0,25 25,0 0,-25 z"><title id="title23470">briefcase</title></path></g></svg>